<svg xmlns="http://www.w3.org/2000/svg" width="18.747" height="21.084" viewBox="0 0 18.747 21.084"><defs><style>.a{fill:#6929ca;}</style></defs><g transform="translate(-8.7 -3.6)"><g transform="translate(8.7 3.6)"><path class="a" d="M42.3,54.148v.908a1.748,1.748,0,1,0,3.5,0v-.908a1.748,1.748,0,1,0-3.5,0Zm.681,0a1.067,1.067,0,1,1,2.133,0v.908a1.067,1.067,0,0,1-2.133,0Z" transform="translate(-34.674 -41.324)"/><path class="a" d="M40.65,73.7h-.3a2.834,2.834,0,0,0-2.655,3v1.838a.34.34,0,1,0,.681,0V76.7a2.171,2.171,0,0,1,1.975-2.315h.3A2.171,2.171,0,0,1,42.625,76.7v1.838a.34.34,0,1,0,.681,0V76.7A2.849,2.849,0,0,0,40.65,73.7Z" transform="translate(-31.118 -57.79)"/><path class="a" d="M71.2,54.148v.908a1.748,1.748,0,1,0,3.5,0v-.908a1.748,1.748,0,1,0-3.5,0Zm.681,0a1.067,1.067,0,1,1,2.133,0v.908a1.067,1.067,0,0,1-2.133,0Z" transform="translate(-57.015 -41.324)"/><path class="a" d="M69.55,73.7h-.3a2.834,2.834,0,0,0-2.655,3v1.838a.34.34,0,1,0,.681,0V76.7a2.171,2.171,0,0,1,1.975-2.315h.3A2.171,2.171,0,0,1,71.525,76.7v1.838a.34.34,0,1,0,.681,0V76.7A2.834,2.834,0,0,0,69.55,73.7Z" transform="translate(-53.459 -57.79)"/><path class="a" d="M15.146,56.8a1.748,1.748,0,0,0,1.748-1.748v-.908a1.748,1.748,0,1,0-3.5,0v.908A1.72,1.72,0,0,0,15.146,56.8Zm-1.089-2.655a1.067,1.067,0,0,1,2.133,0v.908a1.067,1.067,0,1,1-2.133,0Z" transform="translate(-12.332 -41.324)"/><path class="a" d="M11.65,73.7h-.3a2.834,2.834,0,0,0-2.655,3v1.838a.34.34,0,1,0,.681,0V76.7a2.171,2.171,0,0,1,1.975-2.315h.3A2.171,2.171,0,0,1,13.625,76.7v1.838a.34.34,0,1,0,.681,0V76.7A2.834,2.834,0,0,0,11.65,73.7Z" transform="translate(-8.7 -57.79)"/><path class="a" d="M58.546,8a1.748,1.748,0,0,0,1.748-1.748V5.348a1.748,1.748,0,0,0-3.5,0v.908A1.734,1.734,0,0,0,58.546,8ZM57.457,5.348a1.067,1.067,0,1,1,2.133,0v.908a1.067,1.067,0,1,1-2.133,0Z" transform="translate(-45.882 -3.6)"/><path class="a" d="M57.025,27.8v1.838a.34.34,0,0,0,.681,0V27.8a2.834,2.834,0,0,0-2.655-3h-.3a2.834,2.834,0,0,0-2.655,3v1.838a.34.34,0,0,0,.681,0V27.8a2.171,2.171,0,0,1,1.975-2.315h.3A2.171,2.171,0,0,1,57.025,27.8Z" transform="translate(-42.25 -19.989)"/><path class="a" d="M29.548,8A1.748,1.748,0,0,0,31.3,6.255V5.348a1.748,1.748,0,0,0-3.5,0v.908A1.763,1.763,0,0,0,29.548,8ZM28.481,5.348a1.067,1.067,0,1,1,2.133,0v.908a1.067,1.067,0,1,1-2.133,0Z" transform="translate(-23.465 -3.6)"/><path class="a" d="M28.125,27.8v1.838a.34.34,0,0,0,.681,0V27.8a2.834,2.834,0,0,0-2.655-3h-.3a2.834,2.834,0,0,0-2.655,3v1.838a.34.34,0,0,0,.681,0V27.8a2.171,2.171,0,0,1,1.975-2.315h.3A2.171,2.171,0,0,1,28.125,27.8Z" transform="translate(-19.909 -19.989)"/></g></g></svg>