<svg xmlns="http://www.w3.org/2000/svg" width="19.781" height="19.781" viewBox="0 0 19.781 19.781"><defs><style>.a{fill:#0ACF59;}</style></defs><g transform="translate(0.015 0.015)"><g transform="translate(-0.015 -0.015)"><path class="a" d="M17.513,15.266a1.794,1.794,0,0,0-2.785-1.5l-.7-.463a5.365,5.365,0,0,0,1.212-2.98h.985a1.8,1.8,0,1,0,0-.9h-.985a5.365,5.365,0,0,0-1.212-2.98l.7-.463a1.851,1.851,0,1,0-.6-.679l-.737.491a5.362,5.362,0,0,0-3.064-1.288V3.522a1.8,1.8,0,1,0-.9,0v.985A5.362,5.362,0,0,0,6.362,5.8L5.625,5.3a1.774,1.774,0,0,0,.207-.82,1.8,1.8,0,1,0-.809,1.5l.7.463a5.365,5.365,0,0,0-1.212,2.98H3.522a1.8,1.8,0,1,0,0,.9h.985A5.365,5.365,0,0,0,5.719,13.3l-.7.464a1.851,1.851,0,1,0,.6.679l.737-.491a5.362,5.362,0,0,0,3.064,1.288v.985a1.8,1.8,0,1,0,.9,0v-.985a5.362,5.362,0,0,0,3.064-1.288l.737.491a1.774,1.774,0,0,0-.207.82,1.8,1.8,0,1,0,3.594,0Zm.449-6.29a.9.9,0,1,1-.9.9.9.9,0,0,1,.9-.9Zm-16.173,1.8a.9.9,0,1,1,.9-.9.9.9,0,0,1-.9.9ZM15.716,3.586a.9.9,0,1,1-.9.9A.9.9,0,0,1,15.716,3.586Zm-6.739-1.8a.9.9,0,1,1,.9.9A.9.9,0,0,1,8.977,1.789ZM4.035,5.383a.9.9,0,1,1,.9-.9A.9.9,0,0,1,4.035,5.383Zm0,10.782a.9.9,0,1,1,.9-.9A.9.9,0,0,1,4.035,16.165Zm6.739,1.8a.9.9,0,1,1-.9-.9.9.9,0,0,1,.9.9Zm-.9-3.594a4.493,4.493,0,1,1,4.493-4.493,4.493,4.493,0,0,1-4.493,4.493Zm4.942.9a.9.9,0,1,1,.9.9A.9.9,0,0,1,14.817,15.266Z" transform="translate(0.015 0.015)"/><path class="a" d="M17.594,17.8a1.8,1.8,0,1,0-1.8,1.8A1.8,1.8,0,0,0,17.594,17.8Zm-1.8.9a.9.9,0,1,1,.9-.9A.9.9,0,0,1,15.8,18.7Z" transform="translate(-7.704 -8.805)"/><path class="a" d="M26.7,17.348A1.348,1.348,0,1,0,25.348,18.7,1.348,1.348,0,0,0,26.7,17.348Zm-1.348.449a.449.449,0,1,1,.449-.449.449.449,0,0,1-.449.449Z" transform="translate(-13.211 -8.805)"/><path class="a" d="M21.348,24A1.348,1.348,0,1,0,22.7,25.348,1.348,1.348,0,0,0,21.348,24Zm0,1.8a.449.449,0,1,1,.449-.449.449.449,0,0,1-.449.449Z" transform="translate(-11.008 -13.211)"/></g></g></svg>