<svg xmlns="http://www.w3.org/2000/svg" width="23.263" height="17.472" viewBox="0 0 23.263 17.472"><defs><style>.a{fill:#4DA9FF;}</style></defs><g transform="translate(-1013 -748.068)"><g transform="translate(1013 758.703)"><g transform="translate(0 0)"><path class="a" d="M21.491,22.068a1.585,1.585,0,0,0-.235.019h0v0a1.614,1.614,0,0,0-.6.227L16.2,25.087a1.644,1.644,0,0,0-.6-1.283,2.317,2.317,0,0,0-1.418-.4H12.267a4.183,4.183,0,0,1-1.312-.435,4.7,4.7,0,0,0-1.54-.531h-2.9a4.065,4.065,0,0,0-1.808.522,3.922,3.922,0,0,1-1.062.444H2v.665H3.649a3.122,3.122,0,0,0,1.36-.515,3.448,3.448,0,0,1,1.512-.45H9.378a5.166,5.166,0,0,1,1.3.471,4.057,4.057,0,0,0,1.588.495h1.916a1.714,1.714,0,0,1,1.018.262.934.934,0,0,1,.353.837,1.1,1.1,0,0,1-.213.669,1.314,1.314,0,0,1-.127.165,1.445,1.445,0,0,1-1.031.3H10.352v.665h3.831A2.6,2.6,0,0,0,16.1,25.933L21,22.875a.932.932,0,0,1,1.306.314l.149.241a1,1,0,0,1-.31,1.355h0l-5.3,3.321c-.008.007-.059.016-.179.061l-.01.007-.009.007a.961.961,0,0,1-.373.061H2v.665H16.279a1.547,1.547,0,0,0,.643-.119h0a.886.886,0,0,0,.279-.113l5.3-3.321h0a1.662,1.662,0,0,0,.526-2.267l-.149-.241h0a1.615,1.615,0,0,0-1.385-.776Z" transform="translate(-2 -22.068)"/></g></g><g transform="translate(1036.263 754.906) rotate(180)"><g transform="translate(0 0)"><path class="a" d="M19.491,0a1.585,1.585,0,0,0-.235.019h0v0a1.614,1.614,0,0,0-.6.227L14.2,3.018a1.644,1.644,0,0,0-.6-1.283,2.317,2.317,0,0,0-1.418-.4H10.267A4.183,4.183,0,0,1,8.955.9,4.7,4.7,0,0,0,7.415.374h-2.9A4.065,4.065,0,0,0,2.711.9a3.921,3.921,0,0,1-1.062.444H0V2H1.649a3.122,3.122,0,0,0,1.36-.515,3.448,3.448,0,0,1,1.512-.45H7.378a5.166,5.166,0,0,1,1.3.471A4.057,4.057,0,0,0,10.267,2h1.916a1.714,1.714,0,0,1,1.018.262.934.934,0,0,1,.353.837,1.1,1.1,0,0,1-.213.669,1.314,1.314,0,0,1-.127.165,1.445,1.445,0,0,1-1.031.3H8.353V4.9h3.831A2.6,2.6,0,0,0,14.1,3.865L19,.806a.932.932,0,0,1,1.306.314l.149.241a1,1,0,0,1-.31,1.355h0l-5.3,3.321c-.008.007-.059.016-.179.061l-.01.007-.009.007a.961.961,0,0,1-.373.061H0v.665H14.279a1.547,1.547,0,0,0,.643-.119h0a.886.886,0,0,0,.279-.113l5.3-3.321h0a1.662,1.662,0,0,0,.526-2.267L20.877.776h0A1.615,1.615,0,0,0,19.491,0Z" transform="translate(0 0)"/></g></g></g></svg>