<svg xmlns="http://www.w3.org/2000/svg" width="33.33" height="15.91" viewBox="0 0 33.33 15.91"><defs><style>.a{fill:#595959;}</style></defs><g transform="translate(-7.579 -20.374)"><path class="a" d="M10.521,26.26a2.925,2.925,0,0,0,1.628-.493l5.39,5.551a2.943,2.943,0,1,0,4.294.037L26.445,27.6a2.935,2.935,0,0,0,4.791-.061l3.994,2.175a2.961,2.961,0,1,0,.385-.685l-4.023-2.191a2.943,2.943,0,1,0-5.527.059l-4.848,3.946a2.915,2.915,0,0,0-3.062-.02l-5.417-5.578a2.939,2.939,0,1,0-2.218,1.014Zm27.446,2.375a2.157,2.157,0,1,1-2.157,2.157A2.159,2.159,0,0,1,37.967,28.634ZM28.819,23.71a2.157,2.157,0,1,1-2.158,2.157A2.159,2.159,0,0,1,28.819,23.71Zm-6.992,9.632a2.157,2.157,0,1,1-2.157-2.157A2.159,2.159,0,0,1,21.827,33.342ZM10.521,21.16a2.157,2.157,0,1,1-2.157,2.157A2.159,2.159,0,0,1,10.521,21.16Z"/></g></svg>