<svg xmlns="http://www.w3.org/2000/svg" width="19.685" height="26.04" viewBox="0 0 19.685 26.04"><defs><style>.a{stroke:#fff;}</style></defs><g transform="translate(-16.064 -5.543)"><g transform="translate(16.564 6.043)"><path class="a" d="M25.907,6.043a9.343,9.343,0,0,0-9.343,9.343c0,.057,0,.114,0,.171a13.814,13.814,0,0,0,.308,2.23c.6,2.823,2.355,5.74,7.472,10.48.488.453,1.006.921,1.558,1.408.552-.487,1.069-.956,1.558-1.408,5.117-4.74,6.872-7.657,7.472-10.48a13.8,13.8,0,0,0,.309-2.23c0-.057,0-.114,0-.171A9.342,9.342,0,0,0,25.907,6.043Zm0,12.824a3.481,3.481,0,1,1,3.481-3.481A3.481,3.481,0,0,1,25.907,18.867Z" transform="translate(-16.564 -6.043)"/><path class="a" d="M38.973,79.631H36.037c-.488.453-1.558,1.473-2.11,1.96-.552-.487-1.621-1.508-2.11-1.96H28.882a.552.552,0,0,0-.552.552L28.055,81.9a.552.552,0,0,0,.551.552H39.249A.552.552,0,0,0,39.8,81.9l-.275-1.713A.552.552,0,0,0,38.973,79.631Z" transform="translate(-24.585 -57.407)"/></g></g></svg>