<svg xmlns="http://www.w3.org/2000/svg" width="10.583" height="14.182" viewBox="0 0 10.583 14.182"><defs><style>.a{fill:#fff;}</style></defs><g transform="translate(-16.564 -6.043)"><g transform="translate(16.564 6.043)"><path class="a" d="M21.856,6.043a5.292,5.292,0,0,0-5.292,5.292c0,.032,0,.064,0,.1a7.824,7.824,0,0,0,.175,1.263c.34,1.6,1.334,3.251,4.232,5.936.277.256.57.522.882.8.313-.276.606-.541.883-.8,2.9-2.685,3.892-4.337,4.232-5.936a7.819,7.819,0,0,0,.175-1.263c0-.032,0-.064,0-.1A5.291,5.291,0,0,0,21.856,6.043Zm0,7.263a1.971,1.971,0,1,1,1.971-1.971A1.971,1.971,0,0,1,21.856,13.306Z" transform="translate(-16.564 -6.043)"/><path class="a" d="M34.239,79.631H32.576c-.277.256-.882.834-1.195,1.11-.313-.276-.918-.854-1.195-1.11H28.524a.313.313,0,0,0-.313.313l-.156.97a.312.312,0,0,0,.312.313H34.4a.313.313,0,0,0,.312-.313l-.156-.97A.313.313,0,0,0,34.239,79.631Z" transform="translate(-26.089 -67.044)"/></g></g></svg>