<svg xmlns="http://www.w3.org/2000/svg" width="5.105" height="10" viewBox="0 0 5.105 10"><defs><style>.a{fill:#373283;}</style></defs><g transform="translate(-521.438 -701.798)"><path class="a" d="M526.543,710.3h-1v-1h-.553v1h-1v.5h1v1h.553v-1h1Z"/><path class="a" d="M526.346,711.274l-.707-.707.707-.707-.391-.391-.707.707-.707-.707-.354.354.707.707-.707.707.391.391.707-.707.707.707Z"/><path class="a" d="M526.543,705.3h-1v-1h-.553v1h-1v.5h1v1h.553v-1h1Z"/><path class="a" d="M526.346,706.274l-.707-.707.707-.707-.391-.391-.707.707-.707-.707-.354.354.707.707-.707.707.391.391.707-.707.707.707Z"/><path class="a" d="M523.991,702.8h-1v-1h-.553v1h-1v.5h1v1h.553v-1h1Z"/><path class="a" d="M523.794,703.774l-.707-.707.707-.707-.391-.391-.707.707-.707-.707-.354.354.707.707-.707.707.391.391.707-.707.707.707Z"/><path class="a" d="M523.794,708.774l-.707-.707.707-.707-.391-.391-.707.707-.707-.707-.354.354.707.707-.707.707.391.391.707-.707.707.707Z"/><path class="a" d="M523.991,707.8h-1v-1h-.553v1h-1v.5h1v1h.553v-1h1Z"/></g></svg>