<svg id="Camada_1" data-name="Camada 1" xmlns="http://www.w3.org/2000/svg" viewBox="0 0 68.61 116"><defs><style>.cls-1{isolation:isolate;}.cls-2{fill:#f05123;}.cls-3{fill:#595959;}.cls-4{fill:none;stroke:#f05123;}.cls-5{fill:#fff6e9;}</style></defs><g id="Geral" class="cls-1"><g class="cls-1"><path class="cls-2" d="M19.71,9.77a2.31,2.31,0,0,1-.92-.86,2.57,2.57,0,0,1-.32-1.29V5.38a2.57,2.57,0,0,1,.32-1.29,2.34,2.34,0,0,1,.92-.87,3.21,3.21,0,0,1,2.71,0,2.26,2.26,0,0,1,.91.82,2.13,2.13,0,0,1,.32,1.14v.07a.11.11,0,0,1,0,.08.12.12,0,0,1-.09,0H22.36a.12.12,0,0,1-.09,0,.11.11,0,0,1,0-.08v0a1,1,0,0,0-.32-.77,1.16,1.16,0,0,0-.85-.32,1.14,1.14,0,0,0-.86.33,1.22,1.22,0,0,0-.33.88V7.66a1.19,1.19,0,0,0,.35.88,1.24,1.24,0,0,0,.89.33A1.18,1.18,0,0,0,22,8.59a.94.94,0,0,0,.31-.76V7.38a0,0,0,0,0-.05,0H21.09a.12.12,0,0,1-.09,0,.11.11,0,0,1,0-.08V6.29a.11.11,0,0,1,0-.08.12.12,0,0,1,.09,0h2.44a.12.12,0,0,1,.09,0,.11.11,0,0,1,0,.08V7.61a2.63,2.63,0,0,1-.32,1.32,2.16,2.16,0,0,1-.91.86,3,3,0,0,1-1.35.29A2.84,2.84,0,0,1,19.71,9.77Z" transform="translate(0 -1)"/><path class="cls-2" d="M29.22,7.75a.12.12,0,0,1-.13.12H26s-.05,0,0,0a2,2,0,0,0,.11.4,1.05,1.05,0,0,0,1.06.56,1.22,1.22,0,0,0,1-.52.12.12,0,0,1,.09-.06s0,0,.07,0l.72.71a.14.14,0,0,1,.05.09.18.18,0,0,1,0,.08,2.2,2.2,0,0,1-.85.64,3,3,0,0,1-1.14.22,2.63,2.63,0,0,1-1.46-.39,2.16,2.16,0,0,1-.85-1.09,3.42,3.42,0,0,1-.21-1.31,2.86,2.86,0,0,1,.15-1,2.16,2.16,0,0,1,.81-1.13,2.22,2.22,0,0,1,1.36-.42,2.19,2.19,0,0,1,1.6.58,2.52,2.52,0,0,1,.74,1.55A4.57,4.57,0,0,1,29.22,7.75ZM26,6.58A1.94,1.94,0,0,0,26,6.9,0,0,0,0,0,26,7h1.73s.05,0,0,0c0-.19-.05-.29-.05-.28a.82.82,0,0,0-.32-.46A.84.84,0,0,0,26.85,6,.8.8,0,0,0,26,6.58Z" transform="translate(0 -1)"/><path class="cls-2" d="M33.22,4.93a.14.14,0,0,1,.06.15l-.21,1.14c0,.08,0,.1-.14.07a1.23,1.23,0,0,0-.35,0l-.22,0a1,1,0,0,0-.61.27.79.79,0,0,0-.25.62V9.88a.14.14,0,0,1-.12.12H30.21a.14.14,0,0,1-.12-.12V5a.12.12,0,0,1,0-.09.11.11,0,0,1,.08,0h1.17a.11.11,0,0,1,.08,0,.12.12,0,0,1,0,.09v.38a.05.05,0,0,0,0,0s0,0,0,0a1.27,1.27,0,0,1,1.1-.6A1,1,0,0,1,33.22,4.93Z" transform="translate(0 -1)"/><path class="cls-2" d="M37.07,5a2.1,2.1,0,0,1,.8.62,1.5,1.5,0,0,1,.28.87V9.88a.11.11,0,0,1,0,.08A.12.12,0,0,1,38,10H36.86a.14.14,0,0,1-.12-.12V9.55a.05.05,0,0,0,0,0s0,0,0,0a1.58,1.58,0,0,1-1.35.55,2,2,0,0,1-1.26-.38,1.34,1.34,0,0,1-.48-1.12,1.46,1.46,0,0,1,.54-1.2A2.46,2.46,0,0,1,35.67,7h1a0,0,0,0,0,.05,0V6.69a.7.7,0,0,0-.2-.52.86.86,0,0,0-.6-.18,1.14,1.14,0,0,0-.52.11.53.53,0,0,0-.26.31c0,.07-.06.11-.13.1l-1.21-.16c-.08,0-.12,0-.11-.09A1.4,1.4,0,0,1,34,5.5,2,2,0,0,1,34.82,5a2.94,2.94,0,0,1,1.09-.19A3,3,0,0,1,37.07,5Zm-.63,3.8a.71.71,0,0,0,.3-.59V7.85a0,0,0,0,0-.05,0H36a1.33,1.33,0,0,0-.71.17.58.58,0,0,0-.06.91.81.81,0,0,0,.51.15A1.18,1.18,0,0,0,36.44,8.8Z" transform="translate(0 -1)"/><path class="cls-2" d="M39.18,10a.09.09,0,0,1,0-.08V3.12A.14.14,0,0,1,39.26,3h1.17a.12.12,0,0,1,.09,0,.11.11,0,0,1,0,.08V9.88a.11.11,0,0,1,0,.08.12.12,0,0,1-.09,0H39.26A.09.09,0,0,1,39.18,10Z" transform="translate(0 -1)"/></g></g><g id="Bairros" class="cls-1"><g class="cls-1"><path class="cls-3" d="M22.45,41.41a1.73,1.73,0,0,1,.82.65,1.84,1.84,0,0,1,.28,1A1.76,1.76,0,0,1,23,44.5a2.26,2.26,0,0,1-1.52.5H19c-.07,0-.1,0-.1-.1V38.1c0-.07,0-.1.1-.1h2.35a2.28,2.28,0,0,1,1.53.48,1.69,1.69,0,0,1,.55,1.35,1.54,1.54,0,0,1-1,1.52S22.42,41.39,22.45,41.41Zm-2.8-2.75v2.4s0,0,0,0h1.7a1.48,1.48,0,0,0,1-.33,1.11,1.11,0,0,0,.37-.88A1.21,1.21,0,0,0,22.4,39a1.48,1.48,0,0,0-1-.34h-1.7S19.65,38.63,19.65,38.66ZM22.46,44a1.43,1.43,0,0,0,0-1.94,1.44,1.44,0,0,0-1-.37H19.69s0,0,0,0v2.59s0,0,0,0h1.77A1.38,1.38,0,0,0,22.46,44Z" transform="translate(0 -1)"/><path class="cls-3" d="M28.15,40.32a1.58,1.58,0,0,1,.49,1.22V44.9c0,.07,0,.1-.1.1H28c-.07,0-.1,0-.1-.1v-.41s0,0,0,0,0,0,0,0a1.52,1.52,0,0,1-.65.45,2.31,2.31,0,0,1-.89.16,1.93,1.93,0,0,1-1.19-.36,1.29,1.29,0,0,1-.48-1.1,1.45,1.45,0,0,1,.54-1.19A2.39,2.39,0,0,1,26.73,42h1.16s0,0,0,0v-.38a1.13,1.13,0,0,0-.28-.8,1.18,1.18,0,0,0-.89-.3,1.41,1.41,0,0,0-.78.19.77.77,0,0,0-.37.51q0,.1-.12.09L25,41.2c-.07,0-.1,0-.09-.08a1.27,1.27,0,0,1,.6-.91,2.31,2.31,0,0,1,1.3-.35A1.94,1.94,0,0,1,28.15,40.32Zm-.65,3.85a.9.9,0,0,0,.43-.79V42.6s0,0,0,0H26.84a1.87,1.87,0,0,0-1.06.27.85.85,0,0,0-.4.75.79.79,0,0,0,.31.67,1.34,1.34,0,0,0,.79.22A1.75,1.75,0,0,0,27.5,44.17Z" transform="translate(0 -1)"/><path class="cls-3" d="M30.2,38.86a.54.54,0,0,1-.16-.4.54.54,0,0,1,.16-.41.61.61,0,0,1,.8,0,.54.54,0,0,1,.16.41.57.57,0,0,1-1,.4Zm0,6V40c0-.07,0-.1.1-.1h.51c.07,0,.1,0,.1.1v4.86c0,.07,0,.1-.1.1h-.51C30.25,45,30.22,45,30.22,44.89Z" transform="translate(0 -1)"/><path class="cls-3" d="M35.28,40a.11.11,0,0,1,.06.13l-.11.49c0,.07-.06.09-.13.06a.94.94,0,0,0-.39-.07h-.13a1.16,1.16,0,0,0-.86.39,1.28,1.28,0,0,0-.34.92V44.9c0,.07,0,.1-.1.1h-.51c-.07,0-.1,0-.1-.1V40c0-.07,0-.1.1-.1h.51c.07,0,.1,0,.1.1v.61s0,0,0,0,0,0,0,0a1.66,1.66,0,0,1,.53-.58,1.46,1.46,0,0,1,.76-.2A1.14,1.14,0,0,1,35.28,40Z" transform="translate(0 -1)"/><path class="cls-3" d="M38.92,40a.11.11,0,0,1,.06.13l-.11.49c0,.07-.06.09-.13.06a.94.94,0,0,0-.39-.07h-.13a1.16,1.16,0,0,0-.86.39A1.28,1.28,0,0,0,37,42V44.9c0,.07,0,.1-.1.1h-.51c-.07,0-.1,0-.1-.1V40c0-.07,0-.1.1-.1h.51c.07,0,.1,0,.1.1v.61s0,0,0,0h0a1.66,1.66,0,0,1,.53-.58,1.46,1.46,0,0,1,.76-.2A1.14,1.14,0,0,1,38.92,40Z" transform="translate(0 -1)"/><path class="cls-3" d="M40.59,44.71a1.89,1.89,0,0,1-.72-1,4.52,4.52,0,0,1-.14-1.23,4.39,4.39,0,0,1,.14-1.22,1.85,1.85,0,0,1,.71-1,2.11,2.11,0,0,1,1.26-.37,2,2,0,0,1,1.22.37,1.86,1.86,0,0,1,.71,1,4.32,4.32,0,0,1,.14,1.23,4.23,4.23,0,0,1-.14,1.23,1.87,1.87,0,0,1-.71,1,2,2,0,0,1-1.23.37A2.07,2.07,0,0,1,40.59,44.71Zm2.06-.51a1.31,1.31,0,0,0,.46-.72,4.4,4.4,0,0,0,.09-1,5,5,0,0,0-.08-1,1.26,1.26,0,0,0-.47-.71,1.41,1.41,0,0,0-1.66,0,1.25,1.25,0,0,0-.46.71,6.42,6.42,0,0,0,0,2,1.24,1.24,0,0,0,.45.72,1.41,1.41,0,0,0,.85.26A1.34,1.34,0,0,0,42.65,44.2Z" transform="translate(0 -1)"/><path class="cls-3" d="M46,44.87a1.63,1.63,0,0,1-.67-.48,1.09,1.09,0,0,1-.23-.67V43.6c0-.07,0-.1.1-.1h.48c.07,0,.1,0,.1.1v.08a.68.68,0,0,0,.34.57,1.44,1.44,0,0,0,.87.25,1.35,1.35,0,0,0,.84-.24.7.7,0,0,0,.32-.59.52.52,0,0,0-.17-.41,1.19,1.19,0,0,0-.38-.25c-.15-.06-.39-.14-.7-.23a7.35,7.35,0,0,1-.92-.32,1.7,1.7,0,0,1-.61-.45,1.06,1.06,0,0,1-.24-.72,1.22,1.22,0,0,1,.5-1A2.13,2.13,0,0,1,47,39.89a2.43,2.43,0,0,1,1,.18,1.49,1.49,0,0,1,.66.5,1.17,1.17,0,0,1,.23.7v0c0,.07,0,.1-.1.1h-.47c-.07,0-.1,0-.1-.1v0a.67.67,0,0,0-.33-.57,1.47,1.47,0,0,0-.87-.23,1.53,1.53,0,0,0-.82.2.65.65,0,0,0-.31.57.57.57,0,0,0,.3.52,4.09,4.09,0,0,0,.93.36,8.36,8.36,0,0,1,.94.32,1.6,1.6,0,0,1,.62.44,1.06,1.06,0,0,1,.26.74,1.25,1.25,0,0,1-.51,1,2.16,2.16,0,0,1-1.35.39A2.62,2.62,0,0,1,46,44.87Z" transform="translate(0 -1)"/></g></g><g id="Instituições" class="cls-1"><g class="cls-1"><path class="cls-3" d="M18.94,79.9V73.1c0-.07,0-.1.1-.1h.51c.07,0,.1,0,.1.1v6.8c0,.07,0,.1-.1.1H19C19,80,18.94,80,18.94,79.9Z" transform="translate(0 -1)"/><path class="cls-3" d="M24.76,75.34a1.67,1.67,0,0,1,.48,1.26v3.3c0,.07,0,.1-.1.1h-.51c-.07,0-.1,0-.1-.1V76.74a1.21,1.21,0,0,0-.34-.9,1.15,1.15,0,0,0-.86-.35,1.17,1.17,0,0,0-1.23,1.23V79.9c0,.07,0,.1-.1.1h-.51c-.07,0-.1,0-.1-.1V75c0-.07,0-.1.1-.1H22c.07,0,.1,0,.1.1v.43a0,0,0,0,0,0,0s0,0,0,0a1.54,1.54,0,0,1,1.35-.62A1.73,1.73,0,0,1,24.76,75.34Z" transform="translate(0 -1)"/><path class="cls-3" d="M27.44,79.87a1.63,1.63,0,0,1-.67-.48,1.09,1.09,0,0,1-.23-.67V78.6c0-.07,0-.1.1-.1h.48c.07,0,.1,0,.1.1v.08a.68.68,0,0,0,.34.57,1.42,1.42,0,0,0,.87.25,1.35,1.35,0,0,0,.84-.24.7.7,0,0,0,.32-.59.55.55,0,0,0-.17-.41A1.14,1.14,0,0,0,29,78c-.15-.06-.38-.14-.69-.23a7.35,7.35,0,0,1-.92-.32,1.7,1.7,0,0,1-.61-.45,1.06,1.06,0,0,1-.24-.72,1.22,1.22,0,0,1,.5-1,2.13,2.13,0,0,1,1.32-.38,2.43,2.43,0,0,1,1,.18,1.49,1.49,0,0,1,.66.5,1.17,1.17,0,0,1,.23.7v0c0,.07,0,.1-.1.1h-.47c-.07,0-.1,0-.1-.1v0a.67.67,0,0,0-.33-.57,1.47,1.47,0,0,0-.87-.23,1.53,1.53,0,0,0-.82.2.65.65,0,0,0-.31.57.57.57,0,0,0,.3.52,4.09,4.09,0,0,0,.93.36,8.36,8.36,0,0,1,.94.32,1.6,1.6,0,0,1,.62.44,1.06,1.06,0,0,1,.26.74,1.25,1.25,0,0,1-.51,1,2.16,2.16,0,0,1-1.35.39A2.62,2.62,0,0,1,27.44,79.87Z" transform="translate(0 -1)"/><path class="cls-3" d="M33.75,75.53H32.62s0,0,0,0v3a.91.91,0,0,0,.21.68,1,1,0,0,0,.68.19h.25c.07,0,.1,0,.1.1v.41c0,.07,0,.1-.1.1h-.37a1.85,1.85,0,0,1-1.09-.27,1.15,1.15,0,0,1-.37-1V75.57s0,0,0,0h-.61c-.07,0-.1,0-.1-.1V75c0-.07,0-.1.1-.1h.61s0,0,0,0V73.74c0-.07,0-.1.1-.1h.49c.07,0,.1,0,.1.1V74.9s0,0,0,0h1.13c.07,0,.1,0,.1.1v.39C33.85,75.5,33.82,75.53,33.75,75.53Z" transform="translate(0 -1)"/><path class="cls-3" d="M35.3,73.86a.54.54,0,0,1-.16-.4.54.54,0,0,1,.16-.41.61.61,0,0,1,.8,0,.54.54,0,0,1,.16.41.57.57,0,0,1-1,.4Zm0,6V75c0-.07,0-.1.1-.1h.51c.07,0,.1,0,.1.1v4.86c0,.07,0,.1-.1.1h-.51C35.35,80,35.32,80,35.32,79.89Z" transform="translate(0 -1)"/><path class="cls-3" d="M39.94,75.53H38.81s0,0,0,0v3a.91.91,0,0,0,.21.68,1,1,0,0,0,.68.19h.25c.07,0,.1,0,.1.1v.41c0,.07,0,.1-.1.1h-.37a1.85,1.85,0,0,1-1.09-.27,1.15,1.15,0,0,1-.37-1V75.57s0,0,0,0h-.61c-.07,0-.1,0-.1-.1V75c0-.07,0-.1.1-.1H38s0,0,0,0V73.74c0-.07,0-.1.1-.1h.49c.07,0,.1,0,.1.1V74.9s0,0,0,0h1.13c.07,0,.1,0,.1.1v.39C40,75.5,40,75.53,39.94,75.53Z" transform="translate(0 -1)"/><path class="cls-3" d="M44.57,74.94h.51c.07,0,.1,0,.1.1V79.9c0,.07,0,.1-.1.1h-.51c-.07,0-.1,0-.1-.1v-.43s0,0,0,0,0,0,0,0a1.5,1.5,0,0,1-1.33.62,2.1,2.1,0,0,1-.88-.19,1.5,1.5,0,0,1-.65-.57,1.68,1.68,0,0,1-.23-.89V75c0-.07,0-.1.1-.1h.51c.07,0,.1,0,.1.1v3.17a1.29,1.29,0,0,0,.32.91,1.15,1.15,0,0,0,.87.33,1.18,1.18,0,0,0,.9-.34,1.21,1.21,0,0,0,.34-.9V75C44.47,75,44.5,74.94,44.57,74.94Z" transform="translate(0 -1)"/><path class="cls-3" d="M46.85,73.86a.54.54,0,0,1-.16-.4.54.54,0,0,1,.16-.41.61.61,0,0,1,.8,0,.54.54,0,0,1,.16.41.57.57,0,0,1-1,.4Zm0,6V75c0-.07,0-.1.1-.1h.51c.07,0,.1,0,.1.1v4.86c0,.07,0,.1-.1.1H47C46.9,80,46.87,80,46.87,79.89Z" transform="translate(0 -1)"/><path class="cls-3" d="M52.52,78.51v0c0-.07,0-.09.12-.08l.49.08c.07,0,.1,0,.09.11l0,.2a1.58,1.58,0,0,1-.61.88,2.16,2.16,0,0,1-1.11.41s0,0,0,0a1.25,1.25,0,0,1,.51.94,1.06,1.06,0,0,1,0,.21.69.69,0,0,1-.32.46,1.16,1.16,0,0,1-.56.14,1.84,1.84,0,0,1-.41,0,.1.1,0,0,1-.07-.12l0-.23a.16.16,0,0,1,0-.07.11.11,0,0,1,.08,0l.22,0a.49.49,0,0,0,.3-.09.42.42,0,0,0,.17-.27.41.41,0,0,0,0-.12.8.8,0,0,0-.15-.44,2.12,2.12,0,0,0-.42-.43.06.06,0,0,0,0,0,2,2,0,0,1-1-.46,1.84,1.84,0,0,1-.57-.9,4.46,4.46,0,0,1-.13-1.24,4.75,4.75,0,0,1,.13-1.22,1.8,1.8,0,0,1,.7-1,2.07,2.07,0,0,1,1.24-.38,2.11,2.11,0,0,1,1.26.37,1.69,1.69,0,0,1,.7.92,2.62,2.62,0,0,1,.06.3v0s0,.08-.09.09l-.5.07h0s-.08,0-.09-.09l0-.15a1.12,1.12,0,0,0-.44-.64,1.35,1.35,0,0,0-.85-.27,1.32,1.32,0,0,0-.84.27,1.22,1.22,0,0,0-.43.7,4.53,4.53,0,0,0-.09,1,4.44,4.44,0,0,0,.09,1,1.27,1.27,0,0,0,.43.72,1.51,1.51,0,0,0,1.68,0,1.08,1.08,0,0,0,.45-.66Z" transform="translate(0 -1)"/><path class="cls-3" d="M55.18,79.71a1.89,1.89,0,0,1-.72-1,4.52,4.52,0,0,1-.14-1.23,4.39,4.39,0,0,1,.14-1.22,1.85,1.85,0,0,1,.71-1,2.11,2.11,0,0,1,1.26-.37,2,2,0,0,1,1.22.37,1.86,1.86,0,0,1,.71,1,4.32,4.32,0,0,1,.14,1.23,4.23,4.23,0,0,1-.14,1.23,1.87,1.87,0,0,1-.71,1,2,2,0,0,1-1.23.37A2.07,2.07,0,0,1,55.18,79.71Zm1.49-5.8a1.71,1.71,0,0,1-.29-.16l-.28-.15a.54.54,0,0,0-.22,0,.75.75,0,0,0-.31.06.67.67,0,0,0-.24.19c0,.06-.09.07-.14,0L55,73.65a.1.1,0,0,1,0-.14,1,1,0,0,1,.86-.49.78.78,0,0,1,.28,0l.23.1.14.08.14.08.19.09.17,0a.61.61,0,0,0,.53-.28c0-.07.09-.07.14,0l.18.17a.1.1,0,0,1,0,.15,1,1,0,0,1-.38.37A.91.91,0,0,1,57,74,.81.81,0,0,1,56.67,73.91Zm.57,5.29a1.31,1.31,0,0,0,.46-.72,4.4,4.4,0,0,0,.09-1,5,5,0,0,0-.08-1,1.26,1.26,0,0,0-.47-.71,1.41,1.41,0,0,0-1.66,0,1.25,1.25,0,0,0-.46.71,6.42,6.42,0,0,0,0,2,1.24,1.24,0,0,0,.45.72,1.41,1.41,0,0,0,.85.26A1.34,1.34,0,0,0,57.24,79.2Z" transform="translate(0 -1)"/><path class="cls-3" d="M63.77,77.32v.32c0,.07,0,.1-.1.1H60.44s0,0,0,0a3.76,3.76,0,0,0,.06.71,1.17,1.17,0,0,0,.47.71,1.56,1.56,0,0,0,.92.26,1.33,1.33,0,0,0,1.24-.73.1.1,0,0,1,.14,0l.39.23a.1.1,0,0,1,0,.14,1.89,1.89,0,0,1-.75.76,2.38,2.38,0,0,1-1.15.27,2.14,2.14,0,0,1-1.19-.34,1.84,1.84,0,0,1-.69-.92,4.11,4.11,0,0,1-.18-1.38c0-.28,0-.51,0-.69a2.19,2.19,0,0,1,.08-.47,1.86,1.86,0,0,1,.68-1,2,2,0,0,1,1.25-.39,2,2,0,0,1,1.4.46,2.12,2.12,0,0,1,.61,1.3A4.64,4.64,0,0,1,63.77,77.32ZM60.9,75.74a1.2,1.2,0,0,0-.42.68,3.05,3.05,0,0,0-.08.68s0,0,0,0H63s0,0,0,0a3.71,3.71,0,0,0-.06-.64,1.19,1.19,0,0,0-.45-.71,1.28,1.28,0,0,0-.84-.27A1.3,1.3,0,0,0,60.9,75.74Z" transform="translate(0 -1)"/><path class="cls-3" d="M65.75,79.87a1.63,1.63,0,0,1-.67-.48,1.09,1.09,0,0,1-.23-.67V78.6c0-.07,0-.1.1-.1h.48c.07,0,.1,0,.1.1v.08a.67.67,0,0,0,.35.57,1.37,1.37,0,0,0,.86.25,1.35,1.35,0,0,0,.84-.24.7.7,0,0,0,.32-.59.55.55,0,0,0-.17-.41,1,1,0,0,0-.39-.25c-.15-.06-.38-.14-.69-.23a7.35,7.35,0,0,1-.92-.32,1.58,1.58,0,0,1-.6-.45,1,1,0,0,1-.25-.72,1.22,1.22,0,0,1,.5-1,2.13,2.13,0,0,1,1.32-.38,2.43,2.43,0,0,1,1,.18,1.49,1.49,0,0,1,.66.5,1.17,1.17,0,0,1,.23.7v0c0,.07,0,.1-.1.1H68c-.07,0-.1,0-.1-.1v0a.67.67,0,0,0-.33-.57,1.47,1.47,0,0,0-.87-.23,1.53,1.53,0,0,0-.82.2.65.65,0,0,0-.31.57.57.57,0,0,0,.3.52,4.09,4.09,0,0,0,.93.36,8.36,8.36,0,0,1,.94.32,1.6,1.6,0,0,1,.62.44,1.06,1.06,0,0,1,.26.74,1.25,1.25,0,0,1-.51,1,2.16,2.16,0,0,1-1.35.39A2.62,2.62,0,0,1,65.75,79.87Z" transform="translate(0 -1)"/></g></g><g id="Parceiros" class="cls-1"><g class="cls-1"><path class="cls-3" d="M23,108.53a2,2,0,0,1,.53,1.42,1.84,1.84,0,0,1-.55,1.4,2,2,0,0,1-1.43.53H19.62s0,0,0,0v3c0,.07,0,.1-.1.1H19c-.07,0-.1,0-.1-.1v-6.81c0-.07,0-.1.1-.1H21.6A1.91,1.91,0,0,1,23,108.53Zm-.54,2.39a1.27,1.27,0,0,0,.37-1,1.31,1.31,0,0,0-.37-1,1.3,1.3,0,0,0-1-.37h-1.9s0,0,0,0v2.6s0,0,0,0h1.9A1.3,1.3,0,0,0,22.48,110.92Z" transform="translate(0 -1)"/><path class="cls-3" d="M27.83,110.32a1.58,1.58,0,0,1,.49,1.22v3.36c0,.07,0,.1-.1.1h-.51c-.07,0-.1,0-.1-.1v-.41s0,0,0,0,0,0,0,0a1.52,1.52,0,0,1-.65.45,2.31,2.31,0,0,1-.89.16,1.93,1.93,0,0,1-1.19-.36,1.29,1.29,0,0,1-.48-1.1,1.43,1.43,0,0,1,.55-1.19,2.34,2.34,0,0,1,1.51-.43h1.16s0,0,0,0v-.38a1.08,1.08,0,0,0-.28-.8,1.18,1.18,0,0,0-.89-.3,1.41,1.41,0,0,0-.78.19.77.77,0,0,0-.37.51q0,.1-.12.09l-.54-.07c-.07,0-.1,0-.09-.08a1.27,1.27,0,0,1,.6-.91,2.31,2.31,0,0,1,1.3-.35A1.94,1.94,0,0,1,27.83,110.32Zm-.65,3.85a.9.9,0,0,0,.43-.79v-.78s0,0,0,0H26.52a1.87,1.87,0,0,0-1.06.27.85.85,0,0,0-.4.75.79.79,0,0,0,.31.67,1.34,1.34,0,0,0,.79.22A1.75,1.75,0,0,0,27.18,114.17Z" transform="translate(0 -1)"/><path class="cls-3" d="M32.41,110a.11.11,0,0,1,.06.13l-.11.49c0,.07-.06.09-.13.06a.94.94,0,0,0-.39-.07h-.13a1.16,1.16,0,0,0-.86.39,1.28,1.28,0,0,0-.34.92v3c0,.07,0,.1-.1.1H29.9c-.07,0-.1,0-.1-.1V110c0-.07,0-.1.1-.1h.51c.07,0,.1,0,.1.1v.61a0,0,0,0,0,0,0s0,0,0,0a1.66,1.66,0,0,1,.53-.58,1.46,1.46,0,0,1,.76-.2A1.14,1.14,0,0,1,32.41,110Z" transform="translate(0 -1)"/><path class="cls-3" d="M34.06,114.71a1.91,1.91,0,0,1-.7-1,4.46,4.46,0,0,1-.13-1.24,4.75,4.75,0,0,1,.13-1.22,1.8,1.8,0,0,1,.7-1,2.07,2.07,0,0,1,1.24-.38,2.11,2.11,0,0,1,1.26.37,1.69,1.69,0,0,1,.7.92,2.62,2.62,0,0,1,.06.3v0s0,.08-.09.09l-.5.07h0q-.08,0-.09-.09l0-.15a1.12,1.12,0,0,0-.44-.64,1.35,1.35,0,0,0-.85-.27,1.32,1.32,0,0,0-.84.27,1.22,1.22,0,0,0-.43.7,4.53,4.53,0,0,0-.09,1,4.44,4.44,0,0,0,.09,1,1.27,1.27,0,0,0,.43.72,1.51,1.51,0,0,0,1.68,0,1.08,1.08,0,0,0,.45-.66v-.08c0-.07,0-.09.12-.08l.49.08c.07,0,.1,0,.09.11l0,.2a1.57,1.57,0,0,1-.69.94,2.23,2.23,0,0,1-1.27.36A2.07,2.07,0,0,1,34.06,114.71Z" transform="translate(0 -1)"/><path class="cls-3" d="M42.48,112.32v.32c0,.07,0,.1-.1.1H39.15s0,0,0,0a3.76,3.76,0,0,0,.06.71,1.17,1.17,0,0,0,.47.71,1.56,1.56,0,0,0,.92.26,1.33,1.33,0,0,0,1.24-.73.1.1,0,0,1,.14,0l.39.23a.1.1,0,0,1,0,.14,1.89,1.89,0,0,1-.75.76,2.38,2.38,0,0,1-1.15.27,2.14,2.14,0,0,1-1.19-.34,1.84,1.84,0,0,1-.69-.92,4.11,4.11,0,0,1-.18-1.38c0-.28,0-.51,0-.69a2.19,2.19,0,0,1,.08-.47,1.86,1.86,0,0,1,.68-1,2,2,0,0,1,1.25-.39,2,2,0,0,1,1.4.46,2.12,2.12,0,0,1,.61,1.3A4.64,4.64,0,0,1,42.48,112.32Zm-2.86-1.58a1.17,1.17,0,0,0-.43.68,3.05,3.05,0,0,0-.08.68s0,0,0,0h2.59s0,0,0,0a3.71,3.71,0,0,0-.06-.64,1.22,1.22,0,0,0-.44-.71,1.33,1.33,0,0,0-.85-.27A1.25,1.25,0,0,0,39.62,110.74Z" transform="translate(0 -1)"/><path class="cls-3" d="M44,108.86a.54.54,0,0,1-.16-.4.54.54,0,0,1,.16-.41.61.61,0,0,1,.8,0,.54.54,0,0,1,.16.41.57.57,0,0,1-1,.4Zm0,6V110c0-.07,0-.1.1-.1h.51c.07,0,.1,0,.1.1v4.86c0,.07,0,.1-.1.1h-.51C44,115,44,115,44,114.89Z" transform="translate(0 -1)"/><path class="cls-3" d="M49.05,110a.11.11,0,0,1,.06.13l-.11.49c0,.07-.06.09-.13.06a.94.94,0,0,0-.39-.07h-.13a1.16,1.16,0,0,0-.86.39,1.28,1.28,0,0,0-.34.92v3c0,.07,0,.1-.1.1h-.51c-.07,0-.1,0-.1-.1V110c0-.07,0-.1.1-.1h.51c.07,0,.1,0,.1.1v.61s0,0,0,0,0,0,0,0a1.66,1.66,0,0,1,.53-.58,1.46,1.46,0,0,1,.76-.2A1.14,1.14,0,0,1,49.05,110Z" transform="translate(0 -1)"/><path class="cls-3" d="M50.72,114.71a1.89,1.89,0,0,1-.72-1,4.52,4.52,0,0,1-.14-1.23,4.39,4.39,0,0,1,.14-1.22,1.85,1.85,0,0,1,.71-1,2.11,2.11,0,0,1,1.26-.37,2.06,2.06,0,0,1,1.23.37,1.89,1.89,0,0,1,.7,1,4.32,4.32,0,0,1,.14,1.23,4.23,4.23,0,0,1-.14,1.23,1.91,1.91,0,0,1-.7,1,2.26,2.26,0,0,1-2.48,0Zm2.06-.51a1.31,1.31,0,0,0,.46-.72,4.4,4.4,0,0,0,.09-1,5,5,0,0,0-.08-1,1.25,1.25,0,0,0-.46-.71,1.34,1.34,0,0,0-.84-.27,1.29,1.29,0,0,0-.83.27,1.25,1.25,0,0,0-.46.71,6.42,6.42,0,0,0,0,2,1.21,1.21,0,0,0,.46.72,1.38,1.38,0,0,0,.84.26A1.34,1.34,0,0,0,52.78,114.2Z" transform="translate(0 -1)"/><path class="cls-3" d="M56.14,114.87a1.63,1.63,0,0,1-.67-.48,1.09,1.09,0,0,1-.23-.67v-.12c0-.07,0-.1.1-.1h.48c.07,0,.1,0,.1.1v.08a.71.71,0,0,0,.34.57,1.42,1.42,0,0,0,.87.25,1.35,1.35,0,0,0,.84-.24.7.7,0,0,0,.32-.59.58.58,0,0,0-.16-.41,1.28,1.28,0,0,0-.4-.25c-.15-.06-.38-.14-.69-.23a7.35,7.35,0,0,1-.92-.32,1.7,1.7,0,0,1-.61-.45,1.06,1.06,0,0,1-.24-.72,1.22,1.22,0,0,1,.5-1,2.13,2.13,0,0,1,1.32-.38,2.43,2.43,0,0,1,1,.18,1.49,1.49,0,0,1,.66.5,1.17,1.17,0,0,1,.23.7v0c0,.07,0,.1-.1.1h-.47c-.07,0-.1,0-.1-.1v0a.68.68,0,0,0-.32-.57,1.79,1.79,0,0,0-1.7,0,.65.65,0,0,0-.31.57.57.57,0,0,0,.3.52,4.09,4.09,0,0,0,.93.36,8.36,8.36,0,0,1,.94.32,1.6,1.6,0,0,1,.62.44,1.06,1.06,0,0,1,.26.74,1.25,1.25,0,0,1-.51,1,2.16,2.16,0,0,1-1.35.39A2.62,2.62,0,0,1,56.14,114.87Z" transform="translate(0 -1)"/></g></g><line id="Linha_236" data-name="Linha 236" class="cls-4" x1="5.5" y1="5.5" x2="5.5" y2="110.5"/><g id="Retângulo_5532" data-name="Retângulo 5532"><rect class="cls-5" y="35" width="11" height="11" rx="1"/><rect class="cls-4" x="0.5" y="35.5" width="10" height="10" rx="0.5"/></g><g id="Retângulo_5533" data-name="Retângulo 5533"><rect class="cls-5" y="70" width="11" height="11" rx="1"/><rect class="cls-4" x="0.5" y="70.5" width="10" height="10" rx="0.5"/></g><g id="Retângulo_5534" data-name="Retângulo 5534"><rect class="cls-5" y="105" width="11" height="11" rx="1"/><rect class="cls-4" x="0.5" y="105.5" width="10" height="10" rx="0.5"/></g><rect id="Retângulo_2192" data-name="Retângulo 2192" class="cls-2" width="11" height="11" rx="1"/></svg>