<svg xmlns="http://www.w3.org/2000/svg" width="20.35" height="14.198" viewBox="0 0 20.35 14.198"><defs><style>.a{fill:#2e3192;}.b{fill:#fcaf17;}.c{fill:#f26522;}</style></defs><g transform="translate(0.055 -0.1)"><g transform="translate(-0.055 0.1)"><path class="a" d="M238.217,113.041a1.02,1.02,0,1,0-1.017-1.017A1.017,1.017,0,0,0,238.217,113.041Z" transform="translate(-229.612 -107.453)"/><path class="a" d="M331.444,299.3a1.029,1.029,0,0,0-.944.627h1.877A1.032,1.032,0,0,0,331.444,299.3Z" transform="translate(-319.927 -289.73)"/><path class="a" d="M498.623,301.541a1.02,1.02,0,1,0-1.023-1.017A1.017,1.017,0,0,0,498.623,301.541Z" transform="translate(-481.682 -289.924)"/><path class="a" d="M556.937,126a.539.539,0,1,0,.541.541A.537.537,0,0,0,556.937,126Z" transform="translate(-538.602 -121.973)"/><path class="a" d="M13.713,2.678a.836.836,0,0,0-.058-.31,1.536,1.536,0,0,0,.173-.713,1.554,1.554,0,0,0-3.051-.419c-.019,0-.042,0-.061,0H9.574a.871.871,0,0,0-.742.416,2.721,2.721,0,0,0-.281-.013,3.017,3.017,0,0,0-1.714.534.732.732,0,0,0-.138-.1l-.985-.608a.859.859,0,0,0-.457-.131.872.872,0,0,0-.742.413l-.985,1.6-.985-1.6A.868.868,0,0,0,1.8,1.325a.859.859,0,0,0-.457.131l-.985.608a.882.882,0,0,0-.39.544.866.866,0,0,0,.106.659L2.768,7.623l-.761.342a.874.874,0,0,0-.445,1.148L3.5,13.53a.876.876,0,0,0,.8.521h0a.876.876,0,0,0,.8-.521l.62-1.42.62,1.42a.869.869,0,0,0,.8.521h0a.876.876,0,0,0,.8-.521l.611-1.388a3.035,3.035,0,0,0,2.9,2.156h.17a.872.872,0,0,0,.873-.873V12.308h.563a.884.884,0,0,0,.249.534l.793.8a.867.867,0,0,0,.617.259h0a.877.877,0,0,0,.617-.256l.221-.221a3.037,3.037,0,1,0,1.327-5.767c-.051,0-.1,0-.154,0v-.4a.792.792,0,0,0,.256-.051.868.868,0,0,0,.563-.675,1.965,1.965,0,0,0,.7.138.868.868,0,0,0,.566.208h.6a.872.872,0,0,0,.873-.873v-2.7a.872.872,0,0,0-.873-.873h-.6a.867.867,0,0,0-.569.211,1.987,1.987,0,0,0-1,.288.861.861,0,0,0-.553-.2h-.6a.863.863,0,0,0-.432.115l-.4-.48a.87.87,0,0,0-.672-.317.851.851,0,0,0-.294.051.874.874,0,0,0-.576.822Zm.876.259,1.5,1.81V3.615h.477A2.008,2.008,0,0,0,16.69,5.9v.5l-1.5-1.81V5.713h-.6V2.937ZM12.843,6.66H11.7V2.678h1.142ZM12.273.97a.684.684,0,1,1-.684.684A.683.683,0,0,1,12.273.97Zm-2.7,1.8V2.1h1.142V7.226H9.577V6.564a2.057,2.057,0,0,1-1.023.265A2.154,2.154,0,0,1,6.395,4.671a2.292,2.292,0,0,1,.077-.576l.515-.832a.814.814,0,0,0,.077-.16,2.145,2.145,0,0,1,1.49-.6A2.026,2.026,0,0,1,9.577,2.774ZM1.8,2.2,3.529,4.99,5.256,2.2l.931.576a3.064,3.064,0,0,0-.518.96L3.529,7.191.82,2.806Zm5.341,10.98L5.723,9.935,4.3,13.178,2.361,8.761,3.385,8.3,4.3,10.393,5.72,7.149l1.423,3.243L8.058,8.3l1.024.457-.048.109a3,3,0,0,0-.563,1.283Zm3.307-1.74a1.031,1.031,0,0,0,1,.854h.17v1.135h-.17A2.154,2.154,0,0,1,9.3,11.269V10.7a2.188,2.188,0,0,1,.019-.291l.48-1.091A2.164,2.164,0,0,1,13.62,10.7v.611l-.134.134H10.45Zm6.435-2.9a2.162,2.162,0,1,1-1.442,3.771l-.723.723-.774-.784a.876.876,0,0,0,.505-.537l.272-.272V7.277h1.142V8.8A2.019,2.019,0,0,1,16.886,8.534Zm2.533-2.524h-.6V5.662a1.088,1.088,0,0,1-.541.141,1.133,1.133,0,0,1-.713-.253V3.778a1.121,1.121,0,0,1,.713-.253,1.088,1.088,0,0,1,.541.141V3.314h.6Z" transform="translate(0.055 -0.1)"/></g><g transform="translate(0.82 0.967)"><path class="b" d="M30.012,68.5,31.739,65.7l.985.608L30.012,70.7,27.3,66.308l.985-.608Z" transform="translate(-27.3 -64.469)"/><path class="b" d="M205.824,62.7v5.124h-1.142v-.662a2.057,2.057,0,0,1-1.023.265,2.162,2.162,0,0,1,0-4.324,2.048,2.048,0,0,1,1.023.265V62.7Zm-3.182,2.568a1.02,1.02,0,0,0,2.041,0,1.02,1.02,0,1,0-2.041,0Z" transform="translate(-195.928 -61.565)"/><path class="b" d="M364.684,28.569a.684.684,0,1,1,.684-.684A.681.681,0,0,1,364.684,28.569Zm.569,4.324h-1.142V28.911h1.142Z" transform="translate(-353.231 -27.2)"/><g transform="translate(1.542 6.183)"><path class="b" d="M77.438,223.743l1.42-3.243,1.423,3.243.915-2.089,1.024.457-1.938,4.417-1.42-3.243-1.423,3.243L75.5,222.112l1.023-.457Z" transform="translate(-75.5 -220.5)"/><path class="b" d="M294.459,267.655h.169v1.135h-.169a2.154,2.154,0,0,1-2.159-2.159v-.573a2.162,2.162,0,0,1,4.324,0v.745h-3.17A1.031,1.031,0,0,0,294.459,267.655Zm.006-2.623a1.028,1.028,0,0,0-.944.627H295.4A1.032,1.032,0,0,0,294.465,265.032Z" transform="translate(-285.366 -262.512)"/><path class="b" d="M440.059,225.757a2.162,2.162,0,1,1-1.443,3.771l-.723.723-.793-.8.793-.793V224.5h1.142v1.522A2.039,2.039,0,0,1,440.059,225.757Zm-1.027,2.165a1.023,1.023,0,1,0,1.023-1.023A1.017,1.017,0,0,0,439.032,227.922Z" transform="translate(-425.534 -224.372)"/></g></g><g transform="translate(14.589 2.937)"><path class="c" d="M459.9,92.257l-1.5-1.81v1.129h-.6V88.8l1.5,1.81V89.478h.6Z" transform="translate(-457.8 -88.8)"/><path class="c" d="M539.78,100.5v2.7h-.6v-.352a1.088,1.088,0,0,1-.541.141,1.14,1.14,0,0,1,0-2.28,1.088,1.088,0,0,1,.541.141V100.5h.6Zm-1.676,1.353a.539.539,0,1,0,.537-.541A.534.534,0,0,0,538.1,101.856Z" transform="translate(-534.951 -100.126)"/></g></g></svg>