<svg xmlns="http://www.w3.org/2000/svg" xmlns:xlink="http://www.w3.org/1999/xlink" width="220" height="302" viewBox="0 0 220 302"><defs><style>.a,.d{fill:#fbb03b;}.a{stroke:#707070;}.b{clip-path:url(#a);}.c{fill:#f05123;}</style><clipPath id="a"><rect class="a" width="220" height="302" transform="translate(0 466)"/></clipPath></defs><g class="b" transform="translate(0 -466)"><path class="c" d="M354.634,574.49c15.733-.735,29.643-13.722,32.187-30.619,1.755-11.66,3.5-23.3,7.2-34.556q8.22-25,33.013-25.021c16.476.016,27.777,8.5,33.221,24.783,3.553,10.628,5.424,21.6,7.166,32.628,2.047,12.957,7.906,23.746,20.092,29.6,21.909,10.525,46.443-4.067,49.59-29.35a202.92,202.92,0,0,1,7.652-34.464c3.7-12.07,11.378-20.062,23.931-22.584A8.738,8.738,0,0,0,571,484.15v-48.5a6.531,6.531,0,0,0-2.923.3c-11.458,3.224-18.893,10.641-22.925,21.631-4.229,11.525-6.271,23.535-8.012,35.65-1.946,13.54-8.566,24.273-21.3,30.108-20.409,9.351-43.335-3.544-48.06-27.312-2.538-12.764-4.135-25.7-8.519-38.05-5.213-14.688-16.514-22.755-32.131-22.76-15.576-.005-26.3,7.6-31.724,22.241-4.416,11.929-6.289,24.393-8.44,36.844-3.3,19.106-14.993,30.107-33.755,31.833a7.194,7.194,0,0,0-2.206.5v47.407A7.846,7.846,0,0,0,354.634,574.49Z" transform="translate(-351 99.759)"/><path class="c" d="M356.117,525.134c15.811-2.243,27.846-14.166,30.684-30.9,2.005-11.828,3.76-23.7,7.522-35.147,4.92-14.966,16.95-24.144,31.849-24.316,15.984-.183,28.29,8.509,33.55,23.773a156.456,156.456,0,0,1,7.6,33.821c1.129,10.209,6.007,18.275,13.257,25.05,5.143,4.806,11.708,8.4,18.381,8.662,19.924.788,35.74-13.736,38.334-33.736a189.008,189.008,0,0,1,7.168-33.912c3.927-12.171,11.239-20.579,24.2-23.062a6.867,6.867,0,0,0,2.34-.846v-48.4a8.076,8.076,0,0,0-3.649.425c-10.9,3.224-18.156,10.343-21.885,20.959-4.2,11.945-6.453,24.323-8.242,36.846-3.074,21.52-21.282,35.563-40.862,31.977-15.749-2.884-27.264-16.583-29.436-35.219a150.742,150.742,0,0,0-8.062-33.638c-4.927-13.7-15.88-21.355-30.318-21.411-16.9-.066-27.653,6.772-32.9,21.27a151.935,151.935,0,0,0-8.069,33.652c-2.2,18.276-12.914,34.546-34.271,35.688a6.774,6.774,0,0,0-2.306.464v47.71C352.21,525.462,353.926,525.445,356.117,525.134Z" transform="translate(-351 86.761)"/><path class="d" d="M386.961,497.163c2.151-12.45,4.023-24.914,8.44-36.844,5.42-14.643,16.149-22.247,31.724-22.241,15.617.005,26.918,8.072,32.131,22.76,4.385,12.352,5.982,25.286,8.519,38.05,4.725,23.768,27.65,36.663,48.06,27.312,12.737-5.835,19.358-16.568,21.3-30.108,1.741-12.115,3.783-24.125,8.012-35.65,4.032-10.99,11.468-18.407,22.925-21.631a6.531,6.531,0,0,1,2.923-.3V424.386a6.867,6.867,0,0,1-2.34.846c-12.961,2.483-20.273,10.891-24.2,23.062a189.007,189.007,0,0,0-7.168,33.912c-2.594,20-18.41,34.523-38.334,33.736-6.673-.264-13.238-3.856-18.381-8.662-7.25-6.774-12.128-14.841-13.257-25.05a156.456,156.456,0,0,0-7.6-33.821c-5.26-15.263-17.566-23.956-33.55-23.773-14.9.172-26.93,9.35-31.849,24.316-3.762,11.446-5.516,23.319-7.522,35.147-2.837,16.734-14.873,28.657-30.684,30.9-2.191.311-3.907.328-5.117-.288V529.5a7.194,7.194,0,0,1,2.206-.5C371.968,527.27,383.66,516.269,386.961,497.163Z" transform="translate(-351 96.896)"/><path class="d" d="M353.306,478.1c21.356-1.142,32.071-17.412,34.271-35.688a151.935,151.935,0,0,1,8.069-33.652c5.247-14.5,16-21.336,32.9-21.27,14.438.056,25.391,7.714,30.318,21.411a150.742,150.742,0,0,1,8.062,33.638c2.172,18.636,13.687,32.335,29.436,35.219,19.58,3.586,37.788-10.458,40.862-31.977,1.789-12.524,4.047-24.9,8.242-36.846,3.729-10.617,10.99-17.735,21.885-20.959a8.077,8.077,0,0,1,3.649-.425v-6.883a9.64,9.64,0,0,1-4.37,1.814c-9.857,1.989-16.7,8.481-20.44,17.965a134.293,134.293,0,0,0-8.733,36.686c-2.425,25.418-25.526,40.821-48.354,31.69-13.067-5.227-19.679-16.054-21.737-29.581-1.838-12.085-3.925-24.076-8.173-35.581-5.429-14.7-17.345-22.761-33.024-22.451-14.969.295-26.8,9.065-31.662,23.621a172.354,172.354,0,0,0-7.264,33.859c-2.147,17.527-16.028,31.655-31.688,32.712A8.976,8.976,0,0,1,351,470.9v7.658A6.774,6.774,0,0,1,353.306,478.1Z" transform="translate(-351 85.337)"/><path class="c" d="M355.758,626.969c15.774-2.131,27.833-13.445,30.867-29.952,2.4-13.028,3.753-26.276,8.547-38.752,5.248-13.653,17.469-21.934,31.733-21.748,15.9.207,27.088,8.094,32.363,22.549,4.213,11.542,6.592,23.482,8.194,35.61a37.54,37.54,0,0,0,12.551,24.049c10.312,9.047,22.292,10.751,34.83,5.778,13.377-5.307,20.148-16.152,22.187-29.976a220.871,220.871,0,0,1,7.327-33.881c3.892-12.449,11.386-20.954,24.589-23.469A7.144,7.144,0,0,0,571,536.5V488.137c-1.2-.379-2.831-.091-4.762.561-10.748,3.631-17.8,11.057-21.277,21.7a146.662,146.662,0,0,0-6.807,29.475c-.737,6.714-2.052,13.268-5.121,19.413-10.315,20.657-36.831,25.959-53.315,10.521-7.868-7.37-11.885-16.661-13.156-27.27a146.3,146.3,0,0,0-7.4-31.878c-5.371-15.064-15.8-22.579-32.016-22.606-16.24-.026-26.537,7.331-31.968,22.6-4.114,11.563-6.221,23.541-8.245,35.6-3.3,19.644-14.17,29.887-33.9,32.245a6.568,6.568,0,0,0-2.041.53v47.66C352.124,627.241,353.71,627.246,355.758,626.969Z" transform="translate(-351 113.705)"/><path class="c" d="M355.607,688.217a35.871,35.871,0,0,0,31.2-30.309c1.938-12.048,3.644-24.136,7.494-35.778,5.709-17.264,16.585-24.106,38.056-23.955,11.572.082,23.268,10.334,27.83,24.13a190.52,190.52,0,0,1,7.485,33.837c1.349,9.715,5.3,18.155,13.091,24.415,10.432,8.38,22.1,10.208,34.395,5.142,13.285-5.476,20.048-16.279,21.958-30.131a200.275,200.275,0,0,1,7.691-35.075c3.821-11.684,11.167-19.7,23.578-22.1A7.327,7.327,0,0,0,571,597.43V549.4c-1.11-.341-2.641-.053-4.487.558-11.043,3.653-17.958,11.355-21.657,22.14-3.908,11.393-5.949,23.186-7.6,35.093-2.959,21.378-21.153,35.591-40.734,32.116-16.247-2.883-27.461-16.4-30.01-36.093a151.713,151.713,0,0,0-7.508-31.875c-5.333-14.865-15.678-22.118-31.627-22.171-15.985-.053-26.77,7.053-31.718,21.913-3.966,11.912-7.8,23.846-8.9,36.595-1.479,17.252-14.66,30.015-32.225,31.909a9.24,9.24,0,0,0-3.54.933v47.322A8.326,8.326,0,0,0,355.607,688.217Z" transform="translate(-351 129.885)"/><path class="d" d="M386.734,686.781c2.057-12.263,4.178-24.464,8.47-36.2,5.42-14.82,16.05-22.786,30.577-22.7,16.972.1,27.755,7.625,33.278,22.9,4.539,12.554,6.318,25.7,8.958,38.685,5.064,24.914,31.214,37.117,51.838,24.318,10.547-6.546,15.977-16.484,17.423-28.647a162.545,162.545,0,0,1,7.417-33.852c3.95-11.479,11.365-19.437,23.385-22.785A6.748,6.748,0,0,1,571,628.19V587.34a7.327,7.327,0,0,1-2.611.963c-12.411,2.4-19.757,10.416-23.578,22.1a200.276,200.276,0,0,0-7.691,35.075c-1.91,13.852-8.674,24.655-21.958,30.131-12.29,5.066-23.962,3.238-34.395-5.142-7.791-6.26-11.742-14.7-13.091-24.415a190.521,190.521,0,0,0-7.485-33.837c-4.562-13.8-16.258-24.048-27.83-24.13-21.472-.152-32.348,6.691-38.056,23.955-3.85,11.642-5.556,23.73-7.494,35.778a35.871,35.871,0,0,1-31.2,30.309,8.326,8.326,0,0,1-4.607-.374v41.179a5.92,5.92,0,0,1,1.994-.3C370.881,718.583,383.769,704.46,386.734,686.781Z" transform="translate(-351 139.976)"/><path class="d" d="M386.938,549.968c2.024-12.057,4.131-24.036,8.245-35.6,5.432-15.271,15.729-22.628,31.968-22.6,16.221.027,26.645,7.542,32.016,22.606a146.294,146.294,0,0,1,7.4,31.878c1.271,10.609,5.288,19.9,13.156,27.27,16.484,15.438,43,10.136,53.315-10.521,3.069-6.145,4.384-12.7,5.121-19.413a146.664,146.664,0,0,1,6.807-29.475c3.472-10.644,10.528-18.069,21.277-21.7,1.931-.652,3.564-.941,4.762-.561V473.918a8.736,8.736,0,0,1-2.314.757c-12.553,2.522-20.229,10.515-23.931,22.584a202.92,202.92,0,0,0-7.652,34.464c-3.147,25.282-27.681,39.874-49.59,29.35-12.186-5.854-18.045-16.643-20.092-29.6-1.742-11.027-3.614-22-7.166-32.628-5.444-16.286-16.745-24.766-33.221-24.783q-24.769-.027-33.013,25.021c-3.7,11.252-5.446,22.9-7.2,34.556-2.544,16.9-16.454,29.885-32.187,30.619a7.846,7.846,0,0,1-3.634-.449v18.934a6.566,6.566,0,0,1,2.041-.53C372.769,579.856,383.64,569.613,386.938,549.968Z" transform="translate(-351 109.991)"/><path class="d" d="M386.765,613.713c1.094-12.749,4.93-24.683,8.9-36.595,4.948-14.86,15.733-21.966,31.718-21.913,15.949.053,26.294,7.305,31.627,22.171a151.713,151.713,0,0,1,7.508,31.875c2.549,19.689,13.763,33.21,30.01,36.093,19.581,3.474,37.775-10.738,40.734-32.116,1.649-11.907,3.689-23.7,7.6-35.093,3.7-10.785,10.614-18.488,21.657-22.14,1.846-.611,3.377-.9,4.487-.558V526.35a7.144,7.144,0,0,1-2.053.68c-13.2,2.515-20.7,11.02-24.589,23.469a220.869,220.869,0,0,0-7.327,33.881c-2.039,13.823-8.81,24.669-22.187,29.976-12.537,4.973-24.517,3.268-34.83-5.778a37.54,37.54,0,0,1-12.551-24.049c-1.6-12.128-3.981-24.067-8.194-35.61-5.275-14.454-16.46-22.341-32.363-22.549-14.265-.186-26.485,8.1-31.733,21.748-4.794,12.476-6.151,25.724-8.547,38.752-3.034,16.506-15.093,27.821-30.867,29.952-2.048.277-3.634.272-4.758-.279v30.012a9.24,9.24,0,0,1,3.54-.933C372.1,643.728,385.286,630.965,386.765,613.713Z" transform="translate(-351 123.852)"/></g></svg>